<svg width="100" height="100" viewBox="0 0 100 100" fill="none" xmlns="http://www.w3.org/2000/svg">
<path fill-rule="evenodd" clip-rule="evenodd" d="M14.8492 35.1508L0 50L14.8492 64.8493V85.5599H35.5599L50 100L64.4401 85.5599H85.5599V64.4401L100 50L85.5599 35.5599V14.8492H64.8493L50 0L35.1508 14.8492H14.8492V35.1508ZM14.8492 35.1508V64.8493L35.5599 85.5599H64.4401L85.5599 64.4401V35.5599L64.8493 14.8492H35.1508L14.8492 35.1508Z" fill="#2B2D42"/>
<rect width="30" height="30" transform="matrix(0.866025 0.5 -0.866025 0.5 49.9808 21)" fill="url(#paint0_linear_2_6)" stroke="white"/>
<rect width="30" height="30" transform="matrix(0.866025 0.5 0 1 24 36)" fill="url(#paint1_linear_2_6)" stroke="white"/>
<rect width="30" height="30" transform="matrix(0.866025 -0.5 0 1 49.9808 51)" fill="url(#paint2_linear_2_6)" stroke="white"/>
<defs>
<linearGradient id="paint0_linear_2_6" x1="29.9883" y1="30.0074" x2="-1.57457" y2="1.74388" gradientUnits="userSpaceOnUse">
<stop stop-color="#FFE5D5"/>
<stop offset="1" stop-color="#FDBDCB"/>
</linearGradient>
<linearGradient id="paint1_linear_2_6" x1="0" y1="0" x2="33.9919" y2="5.5497" gradientUnits="userSpaceOnUse">
<stop stop-color="#FC93E3"/>
<stop offset="1" stop-color="#FC93AA"/>
</linearGradient>
<linearGradient id="paint2_linear_2_6" x1="-9.18923e-06" y1="-0.0274645" x2="25.6059" y2="-3.38668" gradientUnits="userSpaceOnUse">
<stop stop-color="#D75844"/>
<stop offset="1" stop-color="#E16580"/>
</linearGradient>
</defs>
</svg>
