<svg width="358" height="100" viewBox="0 0 358 100" fill="none" xmlns="http://www.w3.org/2000/svg">
<path fill-rule="evenodd" clip-rule="evenodd" d="M14.8492 35.1508L0 50L14.8492 64.8493V85.5599H35.5599L50 100L64.4401 85.5599H85.5599V64.4401L100 50L85.5599 35.5599V14.8492H64.8493L50 0L35.1508 14.8492H14.8492V35.1508ZM14.8492 35.1508V64.8493L35.5599 85.5599H64.4401L85.5599 64.4401V35.5599L64.8493 14.8492H35.1508L14.8492 35.1508Z" fill="#2B2D42"/>
<rect width="30" height="30" transform="matrix(0.866025 0.5 -0.866025 0.5 49.9808 21)" fill="url(#paint0_linear_5_2)" stroke="white"/>
<rect width="30" height="30" transform="matrix(0.866025 0.5 0 1 24 36)" fill="url(#paint1_linear_5_2)" stroke="white"/>
<rect width="30" height="30" transform="matrix(0.866025 -0.5 0 1 49.9808 51)" fill="url(#paint2_linear_5_2)" stroke="white"/>
<path d="M127.2 72.5C126.14 72.5 125.61 71.97 125.61 70.91V35.42C125.61 34.36 126.14 33.83 127.2 33.83H149.67C150.73 33.83 151.26 34.36 151.26 35.42C151.26 36.46 150.73 36.98 149.67 36.98H128.76V51.35H142.59C143.65 51.35 144.18 51.87 144.18 52.91C144.18 53.97 143.65 54.5 142.59 54.5H128.76V69.35H149.67C150.73 69.35 151.26 69.87 151.26 70.91C151.26 71.97 150.73 72.5 149.67 72.5H127.2ZM160.833 72.5C159.773 72.5 159.243 71.97 159.243 70.91V35.42C159.243 34.36 159.773 33.83 160.833 33.83H175.293C180.273 33.83 183.893 34.97 186.153 37.25C188.433 39.53 189.573 43.16 189.573 48.14V58.19C189.573 63.17 188.433 66.8 186.153 69.08C183.893 71.36 180.273 72.5 175.293 72.5H160.833ZM162.393 69.35H175.293C178.013 69.35 180.183 68.99 181.803 68.27C183.443 67.55 184.623 66.38 185.343 64.76C186.063 63.12 186.423 60.93 186.423 58.19V48.14C186.423 45.42 186.063 43.25 185.343 41.63C184.623 39.99 183.443 38.81 181.803 38.09C180.183 37.35 178.013 36.98 175.293 36.98H162.393V69.35ZM211.214 72.5C210.534 72.5 210.044 72.14 209.744 71.42L194.174 36.08C193.914 35.5 193.914 35.02 194.174 34.64C194.454 34.26 194.834 34.02 195.314 33.92C196.134 33.72 196.704 34.02 197.024 34.82L212.024 68.84H210.914L225.824 34.82C226.144 34.02 226.724 33.72 227.564 33.92C228.084 34.02 228.464 34.26 228.704 34.64C228.944 35.02 228.944 35.5 228.704 36.08L213.074 71.42C212.774 72.14 212.264 72.5 211.544 72.5H211.214ZM236.888 72.5C235.828 72.5 235.298 71.97 235.298 70.91V35.42C235.298 34.36 235.828 33.83 236.888 33.83H250.928C254.348 33.83 256.928 34.71 258.668 36.47C260.428 38.23 261.308 40.82 261.308 44.24V46.04C261.308 49.44 260.428 52.02 258.668 53.78C256.928 55.54 254.348 56.42 250.928 56.42H238.448V70.91C238.448 71.97 237.928 72.5 236.888 72.5ZM238.448 53.27H250.928C253.448 53.27 255.278 52.7 256.418 51.56C257.578 50.4 258.158 48.56 258.158 46.04V44.24C258.158 41.7 257.578 39.86 256.418 38.72C255.278 37.56 253.448 36.98 250.928 36.98H238.448V53.27ZM269.348 72.5C268.288 72.5 267.758 71.97 267.758 70.91V45.71C267.758 44.67 268.288 44.15 269.348 44.15C270.388 44.15 270.908 44.67 270.908 45.71V50.33C271.948 48.33 273.448 46.8 275.408 45.74C277.388 44.68 279.728 44.15 282.428 44.15C283.488 44.15 284.018 44.67 284.018 45.71C284.018 46.77 283.488 47.3 282.428 47.3C278.868 47.3 276.108 48.11 274.148 49.73C272.188 51.33 271.108 53.62 270.908 56.6V70.91C270.908 71.97 270.388 72.5 269.348 72.5ZM291.276 38.69C289.896 38.69 289.206 37.98 289.206 36.56V35.21C289.206 33.83 289.896 33.14 291.276 33.14H292.626C293.966 33.14 294.636 33.83 294.636 35.21V36.56C294.636 37.98 293.966 38.69 292.626 38.69H291.276ZM291.966 72.5C290.906 72.5 290.376 71.97 290.376 70.91V45.71C290.376 44.67 290.906 44.15 291.966 44.15C293.006 44.15 293.526 44.67 293.526 45.71V70.91C293.526 71.97 293.006 72.5 291.966 72.5ZM306.321 72.5C305.261 72.5 304.731 71.97 304.731 70.91V45.71C304.731 44.67 305.261 44.15 306.321 44.15C307.361 44.15 307.881 44.67 307.881 45.71V48.59C309.781 45.63 313.221 44.15 318.201 44.15H319.881C323.621 44.15 326.351 45.02 328.071 46.76C329.811 48.48 330.681 51.21 330.681 54.95V70.91C330.681 71.97 330.161 72.5 329.121 72.5C328.061 72.5 327.531 71.97 327.531 70.91V54.95C327.531 52.09 326.961 50.1 325.821 48.98C324.701 47.86 322.721 47.3 319.881 47.3H318.201C315.101 47.3 312.661 47.79 310.881 48.77C309.101 49.75 308.101 51.28 307.881 53.36V70.91C307.881 71.97 307.361 72.5 306.321 72.5ZM352.932 72.5C349.252 72.5 346.562 71.65 344.862 69.95C343.162 68.25 342.312 65.57 342.312 61.91V47.3H338.742C337.682 47.3 337.152 46.77 337.152 45.71C337.152 44.67 337.682 44.15 338.742 44.15H342.312V37.7C342.312 36.64 342.832 36.11 343.872 36.11C344.932 36.11 345.462 36.64 345.462 37.7V44.15H352.992C354.032 44.15 354.552 44.67 354.552 45.71C354.552 46.77 354.032 47.3 352.992 47.3H345.462V61.91C345.462 64.71 346.002 66.65 347.082 67.73C348.182 68.81 350.132 69.35 352.932 69.35C353.512 69.35 353.922 69.48 354.162 69.74C354.422 70 354.552 70.39 354.552 70.91C354.552 71.97 354.012 72.5 352.932 72.5Z" fill="#2B2D42"/>
<defs>
<linearGradient id="paint0_linear_5_2" x1="29.9883" y1="30.0074" x2="-1.57457" y2="1.74388" gradientUnits="userSpaceOnUse">
<stop stop-color="#FFE5D5"/>
<stop offset="1" stop-color="#FDBDCB"/>
</linearGradient>
<linearGradient id="paint1_linear_5_2" x1="0" y1="0" x2="33.9919" y2="5.5497" gradientUnits="userSpaceOnUse">
<stop stop-color="#FC93E3"/>
<stop offset="1" stop-color="#FC93AA"/>
</linearGradient>
<linearGradient id="paint2_linear_5_2" x1="-9.18923e-06" y1="-0.0274645" x2="25.6059" y2="-3.38668" gradientUnits="userSpaceOnUse">
<stop stop-color="#D75844"/>
<stop offset="1" stop-color="#E16580"/>
</linearGradient>
</defs>
</svg>
